<mxfile host="app.diagrams.net" agent="Mozilla/5.0 (Macintosh; Intel Mac OS X 10_15_7) AppleWebKit/537.36 (KHTML, like Gecko) Chrome/128.0.0.0 Safari/537.36" version="24.8.3">
  <diagram name="第 1 页" id="2zGuADt7pfGiUC1_mc8X">
    <mxGraphModel dx="1085" dy="729" grid="1" gridSize="10" guides="1" tooltips="1" connect="1" arrows="1" fold="1" page="1" pageScale="1" pageWidth="827" pageHeight="1169" math="0" shadow="0">
      <root>
        <mxCell id="0" />
        <mxCell id="1" parent="0" />
        <mxCell id="jAHG6xBxYQ2-jfnXK-rG-115" value="" style="rounded=1;whiteSpace=wrap;html=1;strokeWidth=1;strokeColor=#808080;fillColor=#666666;" vertex="1" parent="1">
          <mxGeometry x="70" y="510" width="310" height="410" as="geometry" />
        </mxCell>
        <mxCell id="jAHG6xBxYQ2-jfnXK-rG-61" value="&lt;font style=&quot;font-size: 16px;&quot;&gt;b.cc&lt;/font&gt;" style="shape=document;whiteSpace=wrap;html=1;boundedLbl=1;size=0.25;direction=east;" vertex="1" parent="1">
          <mxGeometry x="240" y="350" width="130" height="40" as="geometry" />
        </mxCell>
        <mxCell id="jAHG6xBxYQ2-jfnXK-rG-63" value="&lt;font style=&quot;font-size: 16px;&quot;&gt;frontend&lt;/font&gt;" style="rounded=0;whiteSpace=wrap;html=1;" vertex="1" parent="1">
          <mxGeometry x="240" y="410" width="130" height="20" as="geometry" />
        </mxCell>
        <mxCell id="jAHG6xBxYQ2-jfnXK-rG-65" value="&lt;font style=&quot;font-size: 16px;&quot;&gt;a.bc&lt;/font&gt;" style="shape=document;whiteSpace=wrap;html=1;boundedLbl=1;size=0.25;direction=east;fillColor=#FFCC99;strokeWidth=2;" vertex="1" parent="1">
          <mxGeometry x="78.5" y="460" width="130" height="40" as="geometry" />
        </mxCell>
        <mxCell id="jAHG6xBxYQ2-jfnXK-rG-66" value="&lt;font style=&quot;font-size: 16px;&quot;&gt;b.bc&lt;/font&gt;" style="shape=document;whiteSpace=wrap;html=1;boundedLbl=1;size=0.25;direction=east;fillColor=#FFCC99;strokeWidth=2;" vertex="1" parent="1">
          <mxGeometry x="240" y="460" width="130" height="40" as="geometry" />
        </mxCell>
        <mxCell id="jAHG6xBxYQ2-jfnXK-rG-67" value="&lt;font style=&quot;font-size: 16px;&quot;&gt;Combined summary&lt;/font&gt;" style="shape=note;whiteSpace=wrap;html=1;backgroundOutline=1;darkOpacity=0.05;direction=east;flipV=1;size=20;textDirection=vertical-lr;" vertex="1" parent="1">
          <mxGeometry x="328" y="585" width="40" height="315" as="geometry" />
        </mxCell>
        <mxCell id="jAHG6xBxYQ2-jfnXK-rG-68" value="&lt;font style=&quot;font-size: 15px;&quot;&gt;Combine summary and split virtual tables&lt;/font&gt;" style="rounded=0;whiteSpace=wrap;html=1;" vertex="1" parent="1">
          <mxGeometry x="85" y="530" width="280" height="30" as="geometry" />
        </mxCell>
        <mxCell id="jAHG6xBxYQ2-jfnXK-rG-69" value="&lt;font style=&quot;font-size: 16px;&quot;&gt;a.bc&lt;/font&gt;" style="shape=document;whiteSpace=wrap;html=1;boundedLbl=1;size=0.25;direction=east;" vertex="1" parent="1">
          <mxGeometry x="80" y="585" width="50" height="45" as="geometry" />
        </mxCell>
        <mxCell id="jAHG6xBxYQ2-jfnXK-rG-70" value="&lt;font style=&quot;font-size: 16px;&quot;&gt;vtable.bc&lt;/font&gt;" style="shape=document;whiteSpace=wrap;html=1;boundedLbl=1;size=0.25;direction=east;" vertex="1" parent="1">
          <mxGeometry x="152.75" y="585" width="68" height="45" as="geometry" />
        </mxCell>
        <mxCell id="jAHG6xBxYQ2-jfnXK-rG-71" value="&lt;font style=&quot;font-size: 16px;&quot;&gt;b.bc&lt;/font&gt;" style="shape=document;whiteSpace=wrap;html=1;boundedLbl=1;size=0.25;direction=east;" vertex="1" parent="1">
          <mxGeometry x="240" y="585" width="50" height="45" as="geometry" />
        </mxCell>
        <mxCell id="jAHG6xBxYQ2-jfnXK-rG-73" value="&lt;font style=&quot;font-size: 16px;&quot;&gt;a.cc&lt;/font&gt;" style="shape=document;whiteSpace=wrap;html=1;boundedLbl=1;size=0.25;direction=east;" vertex="1" parent="1">
          <mxGeometry x="78.5" y="350" width="130" height="40" as="geometry" />
        </mxCell>
        <mxCell id="jAHG6xBxYQ2-jfnXK-rG-75" value="&lt;font style=&quot;font-size: 16px;&quot;&gt;frontend&lt;/font&gt;" style="rounded=0;whiteSpace=wrap;html=1;" vertex="1" parent="1">
          <mxGeometry x="78.5" y="410" width="130" height="20" as="geometry" />
        </mxCell>
        <mxCell id="jAHG6xBxYQ2-jfnXK-rG-80" value="&lt;font style=&quot;font-size: 16px;&quot;&gt;vtable.bc&lt;/font&gt;" style="shape=document;whiteSpace=wrap;html=1;boundedLbl=1;size=0.25;direction=east;" vertex="1" parent="1">
          <mxGeometry x="156.75" y="780" width="70" height="45" as="geometry" />
        </mxCell>
        <mxCell id="jAHG6xBxYQ2-jfnXK-rG-81" value="BE" style="rounded=0;whiteSpace=wrap;html=1;" vertex="1" parent="1">
          <mxGeometry x="83.5" y="860" width="61.5" height="40" as="geometry" />
        </mxCell>
        <mxCell id="jAHG6xBxYQ2-jfnXK-rG-82" value="BE" style="rounded=0;whiteSpace=wrap;html=1;" vertex="1" parent="1">
          <mxGeometry x="158.75" y="860" width="60" height="40" as="geometry" />
        </mxCell>
        <mxCell id="jAHG6xBxYQ2-jfnXK-rG-84" value="BE" style="rounded=0;whiteSpace=wrap;html=1;" vertex="1" parent="1">
          <mxGeometry x="235" y="860" width="60" height="40" as="geometry" />
        </mxCell>
        <mxCell id="jAHG6xBxYQ2-jfnXK-rG-91" value="" style="curved=1;endArrow=none;html=1;rounded=0;strokeWidth=3;endFill=0;startArrow=blockThin;startFill=1;exitX=0.5;exitY=0;exitDx=0;exitDy=0;" edge="1" parent="1" source="jAHG6xBxYQ2-jfnXK-rG-69">
          <mxGeometry width="50" height="50" relative="1" as="geometry">
            <mxPoint x="140.75" y="590" as="sourcePoint" />
            <mxPoint x="220.75" y="560" as="targetPoint" />
            <Array as="points">
              <mxPoint x="170.75" y="560" />
            </Array>
          </mxGeometry>
        </mxCell>
        <mxCell id="jAHG6xBxYQ2-jfnXK-rG-92" value="" style="curved=1;endArrow=none;html=1;rounded=0;strokeWidth=3;endFill=0;startArrow=blockThin;startFill=1;exitX=0.5;exitY=0;exitDx=0;exitDy=0;" edge="1" parent="1" source="jAHG6xBxYQ2-jfnXK-rG-70">
          <mxGeometry width="50" height="50" relative="1" as="geometry">
            <mxPoint x="115" y="595" as="sourcePoint" />
            <mxPoint x="220" y="560" as="targetPoint" />
            <Array as="points">
              <mxPoint x="187" y="560" />
            </Array>
          </mxGeometry>
        </mxCell>
        <mxCell id="jAHG6xBxYQ2-jfnXK-rG-93" value="" style="curved=1;endArrow=none;html=1;rounded=0;strokeWidth=3;endFill=0;startArrow=blockThin;startFill=1;exitX=0.5;exitY=0;exitDx=0;exitDy=0;" edge="1" parent="1">
          <mxGeometry width="50" height="50" relative="1" as="geometry">
            <mxPoint x="254" y="585" as="sourcePoint" />
            <mxPoint x="221" y="560" as="targetPoint" />
            <Array as="points">
              <mxPoint x="254" y="560" />
            </Array>
          </mxGeometry>
        </mxCell>
        <mxCell id="jAHG6xBxYQ2-jfnXK-rG-94" value="" style="curved=1;endArrow=none;html=1;rounded=0;strokeWidth=3;endFill=0;startArrow=blockThin;startFill=1;exitX=0.5;exitY=0;exitDx=0;exitDy=0;" edge="1" parent="1">
          <mxGeometry width="50" height="50" relative="1" as="geometry">
            <mxPoint x="352.75" y="585" as="sourcePoint" />
            <mxPoint x="237" y="560" as="targetPoint" />
            <Array as="points">
              <mxPoint x="287" y="560" />
            </Array>
          </mxGeometry>
        </mxCell>
        <mxCell id="jAHG6xBxYQ2-jfnXK-rG-95" value="" style="endArrow=none;html=1;rounded=0;endFill=0;startArrow=blockThin;startFill=1;strokeWidth=3;" edge="1" parent="1">
          <mxGeometry width="50" height="50" relative="1" as="geometry">
            <mxPoint x="104.5" y="860" as="sourcePoint" />
            <mxPoint x="104.5" y="637.5" as="targetPoint" />
          </mxGeometry>
        </mxCell>
        <mxCell id="jAHG6xBxYQ2-jfnXK-rG-96" value="" style="endArrow=none;html=1;rounded=0;endFill=0;startArrow=blockThin;startFill=1;strokeWidth=3;" edge="1" parent="1">
          <mxGeometry width="50" height="50" relative="1" as="geometry">
            <mxPoint x="270" y="858" as="sourcePoint" />
            <mxPoint x="270" y="635" as="targetPoint" />
          </mxGeometry>
        </mxCell>
        <mxCell id="jAHG6xBxYQ2-jfnXK-rG-98" value="" style="endArrow=none;html=1;rounded=0;endFill=0;startArrow=blockThin;startFill=1;strokeWidth=3;" edge="1" parent="1">
          <mxGeometry width="50" height="50" relative="1" as="geometry">
            <mxPoint x="190" y="859" as="sourcePoint" />
            <mxPoint x="190" y="822" as="targetPoint" />
          </mxGeometry>
        </mxCell>
        <mxCell id="jAHG6xBxYQ2-jfnXK-rG-99" value="" style="curved=1;endArrow=classic;html=1;rounded=0;strokeWidth=3;" edge="1" parent="1">
          <mxGeometry width="50" height="50" relative="1" as="geometry">
            <mxPoint x="327.01" y="810" as="sourcePoint" />
            <mxPoint x="270" y="860" as="targetPoint" />
            <Array as="points">
              <mxPoint x="277.01" y="810" />
            </Array>
          </mxGeometry>
        </mxCell>
        <mxCell id="jAHG6xBxYQ2-jfnXK-rG-102" value="" style="curved=1;endArrow=classic;html=1;rounded=0;strokeWidth=3;" edge="1" parent="1">
          <mxGeometry width="50" height="50" relative="1" as="geometry">
            <mxPoint x="322.51" y="810" as="sourcePoint" />
            <mxPoint x="190" y="860" as="targetPoint" />
            <Array as="points">
              <mxPoint x="272.51" y="810" />
            </Array>
          </mxGeometry>
        </mxCell>
        <mxCell id="jAHG6xBxYQ2-jfnXK-rG-103" value="" style="curved=1;endArrow=classic;html=1;rounded=0;strokeWidth=3;entryX=0.5;entryY=0;entryDx=0;entryDy=0;" edge="1" parent="1" target="jAHG6xBxYQ2-jfnXK-rG-81">
          <mxGeometry width="50" height="50" relative="1" as="geometry">
            <mxPoint x="330" y="810" as="sourcePoint" />
            <mxPoint x="200" y="870" as="targetPoint" />
            <Array as="points">
              <mxPoint x="270" y="800" />
            </Array>
          </mxGeometry>
        </mxCell>
        <mxCell id="jAHG6xBxYQ2-jfnXK-rG-104" value="" style="curved=1;endArrow=blockThin;html=1;rounded=0;strokeWidth=3;entryX=1;entryY=0.5;entryDx=0;entryDy=0;exitX=-0.05;exitY=0.623;exitDx=0;exitDy=0;exitPerimeter=0;startArrow=blockThin;startFill=1;endFill=1;" edge="1" parent="1" source="jAHG6xBxYQ2-jfnXK-rG-67">
          <mxGeometry width="50" height="50" relative="1" as="geometry">
            <mxPoint x="340" y="820" as="sourcePoint" />
            <mxPoint x="250" y="699.5" as="targetPoint" />
            <Array as="points">
              <mxPoint x="300" y="680" />
            </Array>
          </mxGeometry>
        </mxCell>
        <mxCell id="jAHG6xBxYQ2-jfnXK-rG-106" value="" style="endArrow=blockThin;html=1;rounded=0;strokeWidth=3;endFill=1;exitX=0.473;exitY=1;exitDx=0;exitDy=0;exitPerimeter=0;" edge="1" parent="1" source="jAHG6xBxYQ2-jfnXK-rG-65">
          <mxGeometry width="50" height="50" relative="1" as="geometry">
            <mxPoint x="140" y="510" as="sourcePoint" />
            <mxPoint x="180" y="530" as="targetPoint" />
          </mxGeometry>
        </mxCell>
        <mxCell id="jAHG6xBxYQ2-jfnXK-rG-107" value="" style="endArrow=blockThin;html=1;rounded=0;strokeWidth=3;endFill=1;" edge="1" parent="1">
          <mxGeometry width="50" height="50" relative="1" as="geometry">
            <mxPoint x="188" y="625" as="sourcePoint" />
            <mxPoint x="188" y="648" as="targetPoint" />
          </mxGeometry>
        </mxCell>
        <mxCell id="jAHG6xBxYQ2-jfnXK-rG-108" value="" style="endArrow=blockThin;html=1;rounded=0;strokeWidth=3;endFill=1;" edge="1" parent="1">
          <mxGeometry width="50" height="50" relative="1" as="geometry">
            <mxPoint x="193" y="760" as="sourcePoint" />
            <mxPoint x="193" y="780" as="targetPoint" />
          </mxGeometry>
        </mxCell>
        <mxCell id="jAHG6xBxYQ2-jfnXK-rG-110" value="&lt;font style=&quot;font-size: 15px;&quot;&gt;layout vtabls&lt;/font&gt;" style="rounded=0;whiteSpace=wrap;html=1;" vertex="1" parent="1">
          <mxGeometry x="130" y="649" width="120" height="36" as="geometry" />
        </mxCell>
        <mxCell id="jAHG6xBxYQ2-jfnXK-rG-111" value="&lt;font style=&quot;font-size: 15px;&quot;&gt;remove vtable slots&lt;/font&gt;" style="rounded=0;whiteSpace=wrap;html=1;" vertex="1" parent="1">
          <mxGeometry x="130" y="685" width="120" height="36" as="geometry" />
        </mxCell>
        <mxCell id="jAHG6xBxYQ2-jfnXK-rG-113" value="&lt;span style=&quot;font-size: 15px;&quot;&gt;unused RTTI data&lt;/span&gt;" style="rounded=0;whiteSpace=wrap;html=1;" vertex="1" parent="1">
          <mxGeometry x="129.75" y="721" width="120" height="36" as="geometry" />
        </mxCell>
        <mxCell id="jAHG6xBxYQ2-jfnXK-rG-116" value="" style="endArrow=blockThin;html=1;rounded=0;strokeWidth=3;endFill=1;exitX=0.473;exitY=1;exitDx=0;exitDy=0;exitPerimeter=0;" edge="1" parent="1">
          <mxGeometry width="50" height="50" relative="1" as="geometry">
            <mxPoint x="310" y="499" as="sourcePoint" />
            <mxPoint x="270" y="529" as="targetPoint" />
          </mxGeometry>
        </mxCell>
      </root>
    </mxGraphModel>
  </diagram>
</mxfile>
